<?xml version="1.0" standalone="no"?>
<!DOCTYPE svg PUBLIC "-//W3C//DTD SVG 20010904//EN"
 "http://www.w3.org/TR/2001/REC-SVG-20010904/DTD/svg10.dtd">
<svg version="1.0" xmlns="http://www.w3.org/2000/svg"
 width="469.000000pt" height="291.000000pt" viewBox="0 0 469.000000 291.000000"
 preserveAspectRatio="xMidYMid meet">

<g transform="translate(0.000000,291.000000) scale(0.100000,-0.100000)"
fill="#000000" stroke="none">
<path d="M2504 2805 c-4 -9 -2 -21 4 -27 15 -15 44 -1 40 19 -4 23 -36 29 -44
8z"/>
<path d="M2183 2792 c-52 -8 -95 -90 -74 -143 30 -81 148 -97 191 -26 54 87
-14 185 -117 169z"/>
<path d="M2616 2778 c-28 -40 22 -81 54 -43 17 20 9 46 -17 56 -17 6 -26 3
-37 -13z"/>
<path d="M1918 2708 c-33 -11 -61 -67 -52 -103 15 -62 104 -86 149 -40 68 67
-6 176 -97 143z"/>
<path d="M2439 2709 c-32 -12 -52 -48 -51 -91 2 -72 107 -108 151 -52 58 74
-12 174 -100 143z"/>
<path d="M2756 2694 c-9 -8 -16 -28 -16 -44 0 -36 23 -60 59 -60 54 0 82 68
43 103 -23 21 -66 22 -86 1z"/>
<path d="M1726 2535 c-43 -43 -20 -105 39 -105 59 0 88 72 43 104 -28 20 -62
20 -82 1z"/>
<path d="M2617 2532 c-33 -36 -13 -100 31 -103 48 -4 72 17 72 61 0 53 -69 80
-103 42z"/>
<path d="M2875 2524 c-49 -53 -24 -132 46 -149 62 -15 123 57 100 118 -23 60
-104 77 -146 31z"/>
<path d="M2180 2502 c0 -24 30 -38 42 -20 12 19 4 33 -20 36 -16 3 -22 -2 -22
-16z"/>
<path d="M2062 2488 c-30 -30 11 -85 44 -57 25 21 11 69 -21 69 -6 0 -16 -5
-23 -12z"/>
<path d="M1875 2388 c-20 -50 4 -88 57 -88 48 0 77 70 42 104 -8 9 -31 16 -50
16 -30 0 -37 -5 -49 -32z"/>
<path d="M1630 2349 c-9 -15 -8 -24 1 -35 18 -21 57 -18 64 6 14 44 -44 69
-65 29z"/>
<path d="M2730 2349 c-9 -15 -8 -24 1 -35 18 -21 57 -18 64 6 14 44 -44 69
-65 29z"/>
<path d="M2927 2290 c-36 -29 -50 -83 -32 -126 30 -73 123 -90 176 -33 66 71
20 179 -76 179 -27 0 -51 -7 -68 -20z"/>
<path d="M1754 2255 c-31 -13 -54 -51 -54 -89 0 -28 43 -73 73 -78 78 -13 136
78 89 139 -24 32 -71 44 -108 28z"/>
<path d="M1602 2218 c2 -13 10 -24 19 -26 21 -4 34 28 17 40 -24 15 -39 9 -36
-14z"/>
<path d="M2776 2224 c-4 -10 -2 -22 3 -27 14 -14 43 0 39 20 -4 24 -34 28 -42
7z"/>
<path d="M2889 2017 c-63 -49 -45 -143 31 -162 60 -15 119 49 104 110 -13 53
-94 84 -135 52z"/>
<path d="M1667 1999 c-38 -29 -52 -90 -32 -133 20 -41 55 -61 108 -60 57 2 97
46 97 107 0 23 -6 49 -13 57 -40 52 -115 65 -160 29z"/>
<path d="M1911 1911 c-12 -21 -5 -31 20 -31 21 0 31 24 16 39 -16 16 -25 14
-36 -8z"/>
<path d="M3086 1914 c-4 -10 -2 -22 3 -27 14 -14 43 0 39 20 -4 24 -34 28 -42
7z"/>
<path d="M1940 1805 c-6 -8 -10 -22 -8 -32 4 -25 48 -30 65 -8 26 37 -27 76
-57 40z"/>
<path d="M2757 1802 c-20 -22 -22 -75 -4 -90 6 -6 24 -13 39 -17 57 -14 94 75
46 109 -30 21 -61 20 -81 -2z"/>
<path d="M3034 1795 c-8 -32 6 -48 37 -43 19 2 24 9 24 33 0 25 -4 31 -27 33
-22 3 -29 -2 -34 -23z"/>
<path d="M1753 1735 c-29 -13 -53 -51 -53 -86 0 -84 126 -114 165 -38 22 41
18 73 -10 102 -31 30 -64 38 -102 22z"/>
<path d="M2026 1675 c-43 -43 -20 -105 39 -105 37 0 65 28 65 66 0 45 -70 72
-104 39z"/>
<path d="M2611 1672 c-13 -25 5 -52 34 -52 18 0 26 7 31 24 3 14 3 30 -1 35
-10 17 -53 13 -64 -7z"/>
<path d="M2917 1672 c-21 -23 -22 -66 -1 -86 8 -9 31 -16 49 -16 37 0 55 20
55 63 0 50 -70 76 -103 39z"/>
<path d="M2503 1624 c-6 -17 14 -36 32 -31 6 2 11 13 13 25 3 17 -2 22 -18 22
-11 0 -23 -7 -27 -16z"/>
<path d="M2203 1565 c-44 -31 -50 -110 -11 -142 61 -51 149 -7 148 75 -1 65
-83 105 -137 67z"/>
<path d="M2723 1565 c-12 -8 -27 -31 -33 -49 -28 -86 80 -153 144 -90 43 43
35 114 -15 139 -36 19 -69 19 -96 0z"/>
<path d="M2454 1522 c-71 -57 -53 -167 30 -191 44 -12 80 -4 105 23 47 50 43
129 -8 165 -36 26 -98 27 -127 3z"/>
<path d="M1885 1510 c-39 -43 -12 -103 46 -103 37 0 59 24 59 64 0 52 -70 78
-105 39z"/>
<path d="M2062 1388 c-19 -19 -14 -56 8 -63 43 -14 69 44 31 65 -24 13 -24 13
-39 -2z"/>
<path d="M2187 1343 c-15 -14 -7 -43 12 -43 23 0 34 23 18 39 -13 13 -21 14
-30 4z"/>
<path d="M1180 685 l0 -355 40 0 c36 0 40 3 40 25 l0 24 49 -25 c138 -72 314
21 329 174 17 185 -162 311 -326 228 l-52 -26 0 155 0 155 -40 0 -40 0 0 -355z
m300 -3 c47 -25 83 -94 75 -142 -20 -109 -122 -161 -215 -109 -96 54 -98 188
-4 250 37 24 99 24 144 1z"/>
<path d="M1965 1026 c-99 -31 -182 -99 -223 -182 -107 -213 32 -481 266 -514
110 -15 233 25 307 100 l36 37 -35 27 -36 27 -33 -34 c-125 -124 -344 -85
-430 77 -31 58 -31 174 0 232 55 104 134 154 242 154 75 0 128 -20 184 -70
l37 -32 34 23 34 23 -19 27 c-26 37 -103 87 -163 104 -60 18 -146 18 -201 1z"/>
<path d="M2430 685 l0 -355 40 0 40 0 0 131 c0 102 4 139 17 166 32 69 115 93
181 53 51 -31 62 -70 62 -220 l0 -130 41 0 41 0 -4 159 c-3 159 -3 159 -33
203 -60 84 -171 114 -260 68 -22 -11 -41 -20 -42 -20 -2 0 -3 68 -3 150 l0
150 -40 0 -40 0 0 -355z"/>
<path d="M270 975 l0 -45 90 0 90 0 0 -287 c-1 -159 -5 -308 -9 -332 -22 -111
-138 -173 -233 -123 l-37 19 -36 -24 c-19 -13 -35 -26 -35 -28 0 -3 17 -16 37
-29 123 -81 298 -36 365 93 l28 53 0 374 0 374 -130 0 -130 0 0 -45z"/>
<path d="M813 779 c-88 -16 -155 -74 -178 -153 -19 -62 -19 -70 1 -135 17 -60
68 -121 120 -146 45 -21 137 -22 184 -3 52 22 101 67 121 113 22 48 25 142 6
188 -43 101 -145 156 -254 136z m107 -98 c100 -53 105 -183 10 -248 -88 -61
-220 12 -220 121 0 109 114 178 210 127z"/>
<path d="M3113 779 c-83 -16 -149 -71 -173 -145 -27 -82 3 -200 67 -256 59
-53 165 -64 243 -26 49 24 49 24 52 4 2 -17 10 -21 43 -21 l40 0 3 223 2 223
-42 -3 c-35 -2 -43 -7 -48 -27 -5 -21 -7 -22 -18 -8 -25 30 -109 48 -169 36z
m106 -94 c51 -26 81 -71 81 -121 0 -84 -51 -144 -127 -151 -119 -10 -197 101
-144 206 38 73 121 102 190 66z"/>
<path d="M4555 775 c-27 -6 -60 -17 -71 -23 -19 -10 -23 -9 -27 9 -5 17 -12
20 -44 17 l-38 -3 -3 -223 -2 -223 42 3 43 3 5 140 c3 89 10 148 18 163 16 28
70 62 99 62 17 0 23 8 28 41 4 22 5 42 3 43 -1 2 -25 -2 -53 -9z"/>
<path d="M3550 758 c-34 -18 -48 -32 -57 -60 -26 -80 23 -147 124 -169 82 -17
113 -35 113 -63 0 -55 -92 -76 -158 -36 -42 26 -53 25 -76 -7 -19 -26 -19 -26
5 -44 29 -23 112 -49 153 -49 43 1 108 32 134 65 28 35 28 89 2 133 -22 36
-54 52 -138 72 -29 7 -62 20 -74 30 -21 17 -21 18 -5 44 25 37 60 43 118 19
l48 -21 26 28 26 28 -36 22 c-55 34 -147 38 -205 8z"/>
<path d="M4012 767 c-154 -56 -193 -268 -71 -384 42 -40 77 -53 137 -53 62 1
172 51 172 79 0 4 -15 15 -33 24 -33 18 -35 18 -68 -2 -63 -39 -142 -20 -179
42 -35 56 -35 56 148 59 l167 3 -2 38 c-9 142 -145 239 -271 194z m113 -81
c32 -14 73 -61 63 -72 -3 -2 -57 -3 -119 -2 l-114 3 41 43 c46 46 71 52 129
28z"/>
</g>
</svg>
